# xmcd
#
# Track frame offsets: 
#        150
#        13278
#        24325
#        34643
#        47020
#        57038
#        70952
#        81362
#        93327
#        106074
#        113494
#        126360
#        136464
#        147719
#        160447
#        171242
#        183659
#        196759
#        207177
#        220795
#        231908
#        242527
#        254544
#        263113
#        275664
#        287147
#        300382
#        310012
#        324434
#
# Disc length: 4470 seconds
#
# Revision: 0
# Processed by: cddbd v1.5.2PL0 Copyright (c) Steve Scherf et al.
# Submitted via: ExactAudioCopyFreeDBPlugin 1.0
#
DISCID=a611741d
DTITLE=Various Artist - The Derby Records Story [disc 1]
DYEAR=2008
DGENRE=R&B
TTITLE0=Freddie Mitchell Orchestra - The Derby
TTITLE1=Doc Pomus - Traveling Doc
TTITLE2=Doc Pomus - Kiss My Wrist
TTITLE3=Freddie Mitchell Orchestra - The Slider
TTITLE4=The James Quintet - Paw's in the Kitchen
TTITLE5=Freddie Mitchell Orchestra - Doby's Boogie
TTITLE6=Bobby Mitchell - My Gal Wants a Millionaire
TTITLE7=Bobby Mitchell - Red Beans and Rice
TTITLE8=Freddie Mitchell Orchestra - Easter Parade
TTITLE9=The King Odom Four - Lover Come Back to Me
TTITLE10=Bobby Mitchell - Standing on the Corner
TTITLE11=Cootie Williams Orchestra - Divorce Me C.O.D.
TTITLE12=Big Sheba - Soft Soapin' Mama
TTITLE13=Cedric Wallace Orchestra - Flying Star Boogie
TTITLE14=Big Sheba - Alphabet Blues
TTITLE15=Jimmy Preston and Burnetta Evans - Oh Babe
TTITLE16=Billy Fair - Boogie in the Morning
TTITLE17=Billy Fair - I'll Be True to You
TTITLE18=Joe Black Orchestra - The Mainliner
TTITLE19=Jimmy Preston - Roll, Roll, Roll
TTITLE20=Sarah "Fat Woman" Dean - Long Lean Daddy
TTITLE21=Jimmy Preston - My Baby Done Left Me
TTITLE22=The King Odom Four - All of Me
TTITLE23=Cedric Wallace Orchestra - Walking Home
TTITLE24=Eunice Davis - Rock Little Daddy
TTITLE25=Bob "H-Bomb" Ferguson - Wine Head
TTITLE26=The Imperials - Why Did You Leave Me?
TTITLE27=Joe Black Orchestra - The Beetle
TTITLE28=Eunice Davis - I'm a Wild West Woman
EXTD=
EXTT0=
EXTT1=
EXTT2=
EXTT3=
EXTT4=
EXTT5=
EXTT6=
EXTT7=
EXTT8=
EXTT9=
EXTT10=
EXTT11=
EXTT12=
EXTT13=
EXTT14=
EXTT15=
EXTT16=
EXTT17=
EXTT18=
EXTT19=
EXTT20=
EXTT21=
EXTT22=
EXTT23=
EXTT24=
EXTT25=
EXTT26=
EXTT27=
EXTT28=
PLAYORDER=
